<svg xmlns="http://www.w3.org/2000/svg" xmlns:xlink="http://www.w3.org/1999/xlink" version="1.1" id="Layer_1" x="0px" y="0px" width="100px" height="100px" viewBox="0 0 100 100" enable-background="new 0 0 100 100" xml:space="preserve">
<path d="M88.81,56.531H23.011V20.036c0-6.446,2.687-6.826,3.978-7.009c2.469-0.359,4.418,1.83,5.152,3.628  c-2.606,2.361-3.404,6.264-1.674,9.503c0.314,0.59,0.917,0.924,1.541,0.924c0.278,0,0.559-0.066,0.82-0.206l10.78-5.754  c0.409-0.218,0.714-0.588,0.849-1.031c0.135-0.443,0.087-0.922-0.131-1.33c-1.369-2.564-4.025-4.158-6.936-4.158  c-0.742,0-1.479,0.12-2.192,0.328c-1.449-3.169-4.733-5.921-8.698-5.361c-4.632,0.655-6.982,4.177-6.982,10.466v36.495h-8.617  c-7.496,0.002-7.307,10.312,0,10.257c1.05-0.008,1.724,0.587,1.872,2.017c0.415,4.017,2.332,9.592,6.748,13.791  c1.087,1.034,0.433,2.123,0.433,2.123l-1.632,3.351c-0.421,0.866-0.061,1.911,0.806,2.334c0.246,0.119,0.506,0.176,0.762,0.176  c0.648,0,1.268-0.361,1.572-0.982l1.586-3.256c0,0,0.404-1.257,1.62-0.779c1.968,0.774,4.296,1.138,6.996,1.138h36.662  c1.931,0,3.722-0.419,5.474-0.911c1.476-0.415,2.011,1.516,2.011,1.516l1.14,2.295c0.305,0.615,0.922,0.97,1.565,0.97  c0.261,0,0.525-0.058,0.774-0.182c0.864-0.428,1.217-1.476,0.788-2.339l-1.69-3.403c0,0-0.533-0.871,0.557-1.818  c0.587-0.51,1.173-1.047,1.73-1.645c3.777-4.054,5.537-9.038,6.384-12.621c0.276-1.168,0.396-1.744,1.748-1.775  C95.824,66.628,96.153,56.533,88.81,56.531z M40.102,19.035l-7.057,3.768c-0.13-1.676,0.719-3.352,2.295-4.194  c0.641-0.341,1.33-0.515,2.049-0.515C38.394,18.094,39.345,18.435,40.102,19.035z M88.81,63.296h-2.077  c-2.11-0.035-2.454,2.01-2.791,3.15c-0.644,2.178-1.343,7.553-5.82,12.358c-2.723,2.924-6.018,4.405-9.793,4.405H31.667  c-13.648,0-15.012-12.166-15.679-17.472c-0.138-1.097-0.252-2.257-2.216-2.441h-2.869c-2.586,0.002-2.586-3.272,0-3.273H88.81  C91.024,60.024,91.243,63.298,88.81,63.296z"/>
<path d="M78.582,65.408c-0.93-0.254-1.888,0.302-2.138,1.232c-0.018,0.068-1.906,6.852-8.344,10.381  c-0.847,0.463-1.156,1.525-0.693,2.37c0.289,0.529,0.812,0.847,1.369,0.9c0.336,0.032,0.683-0.033,1.001-0.207  c7.73-4.238,9.947-12.199,10.037-12.536C80.064,66.614,79.513,65.656,78.582,65.408z"/>
</svg>