<svg xmlns="http://www.w3.org/2000/svg" xmlns:xlink="http://www.w3.org/1999/xlink" version="1.1" x="0px" y="0px" width="100px" height="100px" viewBox="0 0 100 100" enable-background="new 0 0 100 100" xml:space="preserve">
<g id="Captions">
</g>
<g id="Your_Icon">
	<g>
		<path fill="#000000" d="M89.375,36.88c-4.344,0-7.876,3.535-7.876,7.876v4.165c-1.025-0.493-2.163-0.791-3.374-0.791H38.75    c-2.205,0-4.194,0.918-5.625,2.381c-1.431-1.463-3.42-2.381-5.625-2.381h-5.625c-1.211,0-2.349,0.298-3.374,0.791V33.506    c0-4.341-3.533-7.876-7.876-7.876s-7.876,3.535-7.876,7.876V80.85c0,4.341,3.533,7.876,7.876,7.876s7.876-3.535,7.876-7.876    v-5.718h62.998v5.718c0,4.341,3.532,7.876,7.876,7.876s7.876-3.535,7.876-7.876V44.756C97.251,40.415,93.719,36.88,89.375,36.88z     M13.999,56.006v5.625v11.25v7.969c0,1.86-1.514,3.374-3.374,3.374S7.251,82.71,7.251,80.85V33.506    c0-1.86,1.514-3.374,3.374-3.374s3.374,1.514,3.374,3.374V56.006z M18.501,56.006c0-1.86,1.514-3.374,3.374-3.374H27.5    c1.86,0,3.374,1.514,3.374,3.374v3.374H18.501V56.006z M81.499,70.63H18.501v-6.748h14.624h48.374V70.63z M81.499,59.38H35.376    v-3.374c0-1.86,1.514-3.374,3.374-3.374h39.375c1.86,0,3.374,1.514,3.374,3.374V59.38z M92.749,80.85    c0,1.86-1.514,3.374-3.374,3.374s-3.374-1.514-3.374-3.374v-7.969v-11.25v-5.625v-11.25c0-1.86,1.514-3.374,3.374-3.374    s3.374,1.514,3.374,3.374V80.85z"/>
		<path fill="#000000" d="M66.875,38.101c6.691,0,12.285-4.819,13.303-11.455c0.14-0.903-0.283-1.799-1.064-2.271    c-0.783-0.469-1.77-0.42-2.504,0.125c-1.221,0.91-2.643,1.392-4.109,1.392c-3.813,0-6.914-3.104-6.914-6.917    c0-1.467,0.48-2.888,1.389-4.108c0.545-0.73,0.596-1.722,0.125-2.503c-0.469-0.781-1.375-1.196-2.268-1.064    c-6.639,1.016-11.458,6.609-11.458,13.301C53.374,32.044,59.432,38.101,66.875,38.101z M61.162,17.661    c-0.051,0.435-0.078,0.874-0.078,1.313c0,6.294,5.122,11.416,11.416,11.416c0.441,0,0.879-0.024,1.311-0.078    c-1.647,2.029-4.147,3.286-6.936,3.286c-4.963,0-8.999-4.038-8.999-8.999C57.876,21.812,59.133,19.31,61.162,17.661z"/>
	</g>
</g>
</svg>