<svg xmlns="http://www.w3.org/2000/svg" xmlns:xlink="http://www.w3.org/1999/xlink" version="1.1" id="Layer_1" x="0px" y="0px" width="100px" height="100px" viewBox="0 0 100 100" enable-background="new 0 0 100 100" xml:space="preserve">
<rect x="31" y="25" fill="none" width="37" height="51"/>
<polygon fill="none" points="68,20 68,13 18,13 18,76 26,76 26,20 "/>
<polygon points="68,76 31,76 31,81 73,81 73,25 68,25 "/>
<polygon points="18,76 18,13 68,13 68,20 73,20 73,8 13,8 13,81 26,81 26,76 "/>
<polygon points="76,20 76,25 81,25 81,88 31,88 31,84 26,84 26,93 86,93 86,20 "/>
<rect x="26" y="76" width="5" height="5"/>
<rect x="68" y="20" width="5" height="5"/>
<g>
	<rect x="25.547" y="19.839" width="34.808" height="27.647"/>
</g>
<g>
	<g>
		<rect x="25.547" y="53.163" width="15.711" height="5.968"/>
	</g>
	<g>
		<rect x="46.419" y="53.163" width="13.936" height="5.968"/>
	</g>
	<g>
		<rect x="25.547" y="63.163" width="15.711" height="5.968"/>
	</g>
	<g>
		<rect x="46.419" y="63.163" width="13.936" height="5.968"/>
	</g>
</g>
<polygon points="72.875,81 43,88 26,88 56.875,81 "/>
</svg>