<svg xmlns="http://www.w3.org/2000/svg" xmlns:xlink="http://www.w3.org/1999/xlink" version="1.2" baseProfile="tiny" id="Layer_1" x="0px" y="0px" width="64px" height="64px" viewBox="0 0 64 64" xml:space="preserve">
<g>
	<rect x="14.979" y="47.502" fill="#000000" width="14" height="4"/>
	<path fill="#000000" d="M47.979,30.502v-25h-39v53h29v-14h20v-14H47.979z M54.979,41.502H29.055c0.299-1.344,1.493-2.35,2.925-2.35   v-1.1c-0.165-0.025-0.329-0.051-0.5-0.051c-1.934,0-3.5,1.566-3.5,3.5v2h7v12h-23v-12h10v-2c0-1.934-1.567-3.5-3.5-3.5   c-0.171,0-0.335,0.025-0.5,0.051v1.1c1.433,0,2.627,1.006,2.925,2.35h-8.925v-19h7.646v-2h-7.646v-12h17v12h-3   c0-1.934-1.566-3.5-3.5-3.5c-0.171,0-0.335,0.025-0.5,0.051v1.084c1.445,0,2.652,1.012,2.962,2.365h0.038v2h4v11h2v-25h14v25h10   V41.502z"/>
</g>
</svg>