<?xml version="1.0" encoding="utf-8"?>
<!-- Generator: Adobe Illustrator 18.0.0, SVG Export Plug-In . SVG Version: 6.00 Build 0)  -->
<!DOCTYPE svg PUBLIC "-//W3C//DTD SVG 1.1//EN" "http://www.w3.org/Graphics/SVG/1.1/DTD/svg11.dtd">
<svg version="1.1" id="Layer_1" xmlns="http://www.w3.org/2000/svg" xmlns:xlink="http://www.w3.org/1999/xlink" x="0px" y="0px"
	 viewBox="0 0 45.4 45.7" enable-background="new 0 0 45.4 45.7" xml:space="preserve">
<path fill="#FFFFFF" d="M38.6,29c-2.7-1-6.6-3.1-9.1-0.9l-2.6,2.2c-2.3-1.5-4.5-3.3-6.5-5.3L20,24.9c-1.9-1.9-3.6-4-5-6.2l2.2-2.6
	c2.3-2.6,0.2-6.5-0.8-9.2C14.7,2.1,14.2-0.2,8.5,0C6.9-0.1,5.2,0.7,4.1,1.9c-9.8,10.3,0,23.5,7.7,31.3c2.4,2.4,5.4-0.5,2.9-2.9
	C9.9,25.5,4,18.4,4.2,11.1c0-2,1.5-6.3,3.9-6.9l0.2,0l0.4,0c0.7,0,1.6-0.1,2.3,0.1c0.4,0.6,3.3,8.5,3.3,8.9l-2.4,2.9
	c-0.7,0.9-1.1,2-1,3.1c0.1,0.9,0.5,1.5,0.5,1.5c1.6,2.6,3.6,5,5.7,7.2l0.4,0.4c1.8,1.8,3.6,3.2,5,4.2c1.4,1,2.3,1.6,2.3,1.6
	c1.4,0.9,3.3,0.6,4.6-0.4l2.7-2.3c0.9-0.1,8.1,2.6,9.1,3.4c0.1,1.2,0,2.1,0,2.1l0,0.4l0,0.2c-0.1,0.2-0.2,0.6-0.6,1
	c-10.1,9.6-18.4-7.2-26.2,0.5c-2,2,1,4.9,2.9,2.9c1.2-1.2,2.8-1.4,5.5,0.3c3.5,2.2,7.2,3.4,11.5,3.3c4.2-0.1,11.2-3.4,11-8.5
	C45.6,31.2,43.3,30.8,38.6,29z M10.4,40.5c-1.4,0-2.6,1.1-2.6,2.6c0,1.4,1.1,2.6,2.6,2.6s2.6-1.1,2.6-2.6
	C13,41.7,11.8,40.5,10.4,40.5z"/>
</svg>
